<?xml version="1.0" encoding="utf-8"?>
<!-- Generator: Adobe Illustrator 19.1.0, SVG Export Plug-In . SVG Version: 6.00 Build 0)  -->
<svg version="1.1" id="Layer_1" xmlns="http://www.w3.org/2000/svg" xmlns:xlink="http://www.w3.org/1999/xlink" x="0px" y="0px"
	 viewBox="-1219 997 800 600" style="enable-background:new -1219 997 800 600;" xml:space="preserve">
<style type="text/css">
	.st0{fill:url(#rect3249_1_);}
	.st1{fill:url(#SVGID_1_);}
	.st2{fill:url(#rect3253_1_);}
	.st3{fill:#3B3939;}
	.st4{fill:url(#SVGID_2_);}
	.st5{fill:#426DB5;}
	.st6{fill:#ED1F24;}
	.st7{fill:#32558E;}
	.st8{fill:url(#SVGID_3_);}
	.st9{fill:url(#SVGID_4_);}
	.st10{fill:url(#SVGID_5_);}
	.st11{fill:url(#SVGID_6_);}
	.st12{fill:url(#SVGID_7_);}
	.st13{fill:url(#SVGID_8_);}
	.st14{opacity:0.45;fill:url(#SVGID_9_);enable-background:new    ;}
	.st15{opacity:0.45;fill:url(#SVGID_10_);enable-background:new    ;}
	.st16{fill:#552500;}
</style>
<g>
	<g id="g3415">
		
			<linearGradient id="rect3249_1_" gradientUnits="userSpaceOnUse" x1="-667.5557" y1="1290.5317" x2="-713.676" y2="1290.5317" gradientTransform="matrix(1 0 0 -1 -129.7764 2346.3037)">
			<stop  offset="0" style="stop-color:#FFEF00"/>
			<stop  offset="0.5689" style="stop-color:#E7D31B"/>
			<stop  offset="0.9515" style="stop-color:#E5BF21"/>
		</linearGradient>
		<rect id="rect3249" x="-849.2" y="1046.2" class="st0" width="57.9" height="19.1"/>
		
			<linearGradient id="SVGID_1_" gradientUnits="userSpaceOnUse" x1="-759.3711" y1="3138.4854" x2="-865.4585" y2="3099.8728" gradientTransform="matrix(1 0 0 1 4 -1997)">
			<stop  offset="0" style="stop-color:#FFEF00"/>
			<stop  offset="0.5689" style="stop-color:#E7D31B"/>
			<stop  offset="0.9515" style="stop-color:#E5BF21"/>
		</linearGradient>
		<path class="st1" d="M-755.5,1085.5L-755.5,1085.5l0-0.8c-5.4-17.4-20.1-19.3-36-19.4h-11.1h-1.2h-33.5h-0.2h-12.4
			c-15.1,0.3-28.2,3.4-32.9,18.3v3.4h-0.1v63.7h0.1v2c4.8,14.9,17.8,18,32.9,18.3h12.4h0.2h34.7c0.1-0.2,0.2-0.3,0.3-0.5h10.9
			c15.8-0.1,30.5-1.9,36-18.3v-0.5h0V1085.5L-755.5,1085.5z"/>
		
			<linearGradient id="rect3253_1_" gradientUnits="userSpaceOnUse" x1="-653.8123" y1="1154.5884" x2="-727.9498" y2="1181.5721" gradientTransform="matrix(1 0 0 -1 -128.3477 2344.877)">
			<stop  offset="0" style="stop-color:#FFEF00"/>
			<stop  offset="0.5689" style="stop-color:#E7D31B"/>
			<stop  offset="0.9515" style="stop-color:#E5BF21"/>
		</linearGradient>
		<rect id="rect3253" x="-858.2" y="1169" class="st2" width="78" height="15.6"/>
	</g>
	<g>
		<circle class="st3" cx="-841" cy="1107.7" r="8.5"/>
		<circle class="st3" cx="-797" cy="1107.7" r="8.5"/>
		<path class="st3" d="M-801.2,1134.3c-2.9,1.4-5.8,2.6-8.8,3.5c-3,0.9-6.1,1.4-9.5,1.4c-2.5,0-5.2-0.3-8.2-1
			c-2.9-0.7-6.1-1.8-9.7-3.5c-1.2-0.6-2.7,0-3.3,1.2c-0.6,1.2,0,2.7,1.2,3.3c3.8,1.8,7.3,3,10.6,3.8c3.3,0.8,6.4,1.1,9.3,1.1
			c4,0,7.6-0.6,11-1.6c3.4-1,6.5-2.3,9.5-3.7c1.2-0.6,1.8-2.1,1.2-3.3C-798.4,1134.3-799.9,1133.7-801.2,1134.3z"/>
	</g>
</g>
<linearGradient id="SVGID_2_" gradientUnits="userSpaceOnUse" x1="-822.5005" y1="3548.283" x2="-822.5005" y2="3342.8069" gradientTransform="matrix(1 0 0 1 4 -1997)">
	<stop  offset="0" style="stop-color:#446DB5"/>
	<stop  offset="0.6061" style="stop-color:#446DB5"/>
	<stop  offset="0.7636" style="stop-color:#628DAD"/>
	<stop  offset="0.903" style="stop-color:#6795B6"/>
</linearGradient>
<path class="st4" d="M-752.3,1345.8h-62.1h-103.8v66.8v15.5v74.1v1.6v47.6h95.6v-47.6v-1.6v-71.4c1.2,0.4,2.5,0.6,3.9,0.6
	c1.5,0,3-0.3,4.3-0.7v71.5v1.6v47.6h95.6v-47.6v-1.6v-74.1v-21.7v-60.5H-752.3L-752.3,1345.8z"/>
<g>
	<path class="st5" d="M-672.6,1324.7l-9.5-55.6l-29.3-57.8c0,0-13.7-21.2-36.5-16.8L-720,1331L-672.6,1324.7z"/>
	<path class="st6" d="M-716.9,1345.8l-31-151.4c0-6.2-5.5-11.2-12.7-11.9l0-0.1l-0.1,0.1c-0.5,0-1-0.1-1.5-0.1H-876
		c-0.2,0-0.5,0-0.7,0l0,0l0,0c-7.5,0.3-13.5,5.6-13.5,12l-30,151.4L-716.9,1345.8L-716.9,1345.8z"/>
	<g id="cuffs_1_">
		<g>
			<path class="st7" d="M-672.6,1324.4c-0.6-4.1-11.7-6.1-24.9-4.4c-13.1,1.7-23.3,6.3-22.7,10.4c0.6,4.1,11.7,6.1,24.9,4.4
				C-682.2,1333.2-672,1328.5-672.6,1324.4z"/>
		</g>
	</g>
	<g id="arm_2_">
		<g>
			
				<linearGradient id="SVGID_3_" gradientUnits="userSpaceOnUse" x1="-678.0082" y1="3342.2617" x2="-718.8672" y2="3329.6997" gradientTransform="matrix(1 0 0 1 4 -1997)">
				<stop  offset="0" style="stop-color:#FFEF00"/>
				<stop  offset="1" style="stop-color:#E7D31B"/>
			</linearGradient>
			<path class="st8" d="M-678.8,1323.8c0,0-18.1-6.2-34.8,4.8l2.4,25.2l36.2-5.3L-678.8,1323.8z"/>
		</g>
	</g>
	<g>
		
			<linearGradient id="SVGID_4_" gradientUnits="userSpaceOnUse" x1="-661.0837" y1="3377.5176" x2="-722.8896" y2="3358.5154" gradientTransform="matrix(1 0 0 1 4 -1997)">
			<stop  offset="0" style="stop-color:#FFEF00"/>
			<stop  offset="1" style="stop-color:#E7D31B"/>
		</linearGradient>
		<path class="st9" d="M-692.5,1339.5c-17.7,2.4-30.1,18.7-27.7,36.4c1.3,9.8,6.9,18,14.7,22.9c0.4,0,4.1,0.9,6-0.3
			c5.9-3.5-1-12.2-3.7-19.5c-1.1-1.9-1.9-4-2.2-6.4c-1.3-9.3,5.2-17.8,14.5-19.1c0.1,0,0.3,0,0.4,0c0.1,0,0.3,0,0.4-0.1
			c9.3-1.3,17.8,5.2,19.1,14.5c0.3,2.3,0.1,4.6-0.4,6.7c-0.7,7.8-5,18,1.7,19.8c2.1,0.6,5.4-1.2,5.8-1.3c6.1-6.8,9.3-16.2,8-26
			C-658.5,1349.5-674.8,1337.1-692.5,1339.5z"/>
	</g>
	<path class="st5" d="M-918,1331.5l27.9-136.6c-22.8-4.4-36.5,16.8-36.5,16.8l-29.3,57.8l-9.5,55.6L-918,1331.5z"/>
	<g id="cuffs_2_">
		<g>
			<path class="st7" d="M-940.5,1320.5c-13.1-1.7-24.3,0.3-24.9,4.4c-0.6,4.1,9.6,8.8,22.7,10.4c13.1,1.7,24.3-0.3,24.9-4.4
				C-917.2,1326.9-927.4,1322.2-940.5,1320.5z"/>
		</g>
	</g>
	<g id="arm_3_">
		<g>
			
				<linearGradient id="SVGID_5_" gradientUnits="userSpaceOnUse" x1="-927.751" y1="3341.3501" x2="-965.7703" y2="3329.6611" gradientTransform="matrix(1 0 0 1 4 -1997)">
				<stop  offset="0" style="stop-color:#FFEF00"/>
				<stop  offset="1" style="stop-color:#E7D31B"/>
			</linearGradient>
			<path class="st10" d="M-959.2,1324.3l-3.8,24.7l36.2,5.3l2.4-25.2C-941.1,1318.1-959.2,1324.3-959.2,1324.3z"/>
		</g>
	</g>
	<g>
		
			<linearGradient id="SVGID_6_" gradientUnits="userSpaceOnUse" x1="-922.3003" y1="3376.4771" x2="-984.1043" y2="3357.4756" gradientTransform="matrix(1 0 0 1 4 -1997)">
			<stop  offset="0" style="stop-color:#FFEF00"/>
			<stop  offset="1" style="stop-color:#E7D31B"/>
		</linearGradient>
		<path class="st11" d="M-945.5,1340c17.7,2.4,30.1,18.7,27.7,36.4c-1.3,9.8-6.9,18-14.7,22.9c-0.4,0-4.1,0.9-6-0.3
			c-5.9-3.5,1-12.2,3.7-19.5c1.1-1.9,1.9-4,2.2-6.4c1.3-9.3-5.2-17.8-14.5-19.1c-0.1,0-0.3,0-0.4,0c-0.1,0-0.3,0-0.4-0.1
			c-9.3-1.3-17.8,5.2-19.1,14.5c-0.3,2.3-0.1,4.6,0.4,6.7c0.7,7.8,5,18-1.7,19.8c-2.1,0.6-5.4-1.2-5.8-1.3c-6.1-6.8-9.3-16.2-8-26
			C-979.5,1350-963.2,1337.6-945.5,1340z"/>
	</g>
</g>
<g>
	<path class="st7" d="M-916.6,1283.5l-29.8-9c-0.8-0.2-1.6,0.2-1.9,1c-0.2,0.8,0.2,1.6,1,1.9l29.8,9c0.8,0.2,1.6-0.2,1.9-1
		S-915.8,1283.7-916.6,1283.5"/>
</g>
<g>
	<path class="st7" d="M-692.2,1271.7l-27.5,14.7c-0.7,0.4-1,1.3-0.6,2c0.4,0.7,1.3,1,2,0.6l27.5-14.7c0.7-0.4,1-1.3,0.6-2
		C-690.6,1271.6-691.5,1271.3-692.2,1271.7"/>
</g>
<rect x="-918.2" y="1521.2" class="st7" width="95.6" height="6.6"/>
<rect x="-814.4" y="1521.2" class="st7" width="95.6" height="6.6"/>
<linearGradient id="SVGID_7_" gradientUnits="userSpaceOnUse" x1="-874.4915" y1="3423.0979" x2="-874.4915" y2="3455.616" gradientTransform="matrix(1 0 0 1 4 -1997)">
	<stop  offset="0" style="stop-color:#000000;stop-opacity:0.57"/>
	<stop  offset="1" style="stop-color:#000000;stop-opacity:0"/>
</linearGradient>
<rect x="-918.4" y="1426.1" class="st12" width="95.8" height="32.5"/>
<linearGradient id="SVGID_8_" gradientUnits="userSpaceOnUse" x1="-770.6805" y1="3423.0979" x2="-770.6805" y2="3455.616" gradientTransform="matrix(1 0 0 1 4 -1997)">
	<stop  offset="0" style="stop-color:#000000;stop-opacity:0.57"/>
	<stop  offset="1" style="stop-color:#000000;stop-opacity:0"/>
</linearGradient>
<rect x="-814.6" y="1426.1" class="st13" width="95.8" height="32.5"/>
<path class="st7" d="M-727.1,1345.8h-182.4h-8.9v26.3h8.9h80.4v61.3c0,5.9,4.8,10.7,10.8,10.7c6,0,10.8-4.8,10.8-10.7v-61.3h80.4
	h8.8v-26.3H-727.1z"/>
<linearGradient id="SVGID_9_" gradientUnits="userSpaceOnUse" x1="-3269.5774" y1="1411.5389" x2="-3269.5774" y2="1444.0559" gradientTransform="matrix(-1 0 0 -1 -4036.1719 2932.7109)">
	<stop  offset="0" style="stop-color:#FFFFFF;stop-opacity:0.57"/>
	<stop  offset="8.989999e-02" style="stop-color:#E0E1E2;stop-opacity:0.5187"/>
	<stop  offset="0.2821" style="stop-color:#A9ABAD;stop-opacity:0.4092"/>
	<stop  offset="0.4649" style="stop-color:#7F8083;stop-opacity:0.305"/>
	<stop  offset="0.6331" style="stop-color:#5D5E60;stop-opacity:0.2091"/>
	<stop  offset="0.7835" style="stop-color:#414042;stop-opacity:0.1234"/>
	<stop  offset="0.9109" style="stop-color:#19191A;stop-opacity:5.080000e-02"/>
	<stop  offset="1" style="stop-color:#000000;stop-opacity:0"/>
</linearGradient>
<rect x="-814.4" y="1488.7" class="st14" width="95.6" height="32.5"/>
<linearGradient id="SVGID_10_" gradientUnits="userSpaceOnUse" x1="-3165.7664" y1="1411.5389" x2="-3165.7664" y2="1444.0559" gradientTransform="matrix(-1 0 0 -1 -4036.1719 2932.7109)">
	<stop  offset="0" style="stop-color:#FFFFFF;stop-opacity:0.57"/>
	<stop  offset="8.989999e-02" style="stop-color:#E0E1E2;stop-opacity:0.5187"/>
	<stop  offset="0.2821" style="stop-color:#A9ABAD;stop-opacity:0.4092"/>
	<stop  offset="0.4649" style="stop-color:#7F8083;stop-opacity:0.305"/>
	<stop  offset="0.6331" style="stop-color:#5D5E60;stop-opacity:0.2091"/>
	<stop  offset="0.7835" style="stop-color:#414042;stop-opacity:0.1234"/>
	<stop  offset="0.9109" style="stop-color:#19191A;stop-opacity:5.080000e-02"/>
	<stop  offset="1" style="stop-color:#000000;stop-opacity:0"/>
</linearGradient>
<rect x="-918.2" y="1488.7" class="st15" width="95.6" height="32.5"/>
<g>
	<path d="M-877.8,1623.7l0.8,2.9c0.2,0.6,0.3,1.2,0.4,1.8h0c0.1-0.6,0.3-1.2,0.5-1.8l0.9-3h0.9l0.9,2.9c0.2,0.7,0.4,1.3,0.5,1.9h0
		c0.1-0.6,0.3-1.2,0.4-1.9l0.8-2.9h1l-1.9,5.8h-1l-0.9-2.8c-0.2-0.6-0.4-1.2-0.5-1.9h0c-0.1,0.7-0.3,1.3-0.5,1.9l-0.9,2.8h-1
		l-1.8-5.8H-877.8z"/>
	<path d="M-868.9,1623.7l0.8,2.9c0.2,0.6,0.3,1.2,0.4,1.8h0c0.1-0.6,0.3-1.2,0.5-1.8l0.9-3h0.9l0.9,2.9c0.2,0.7,0.4,1.3,0.5,1.9h0
		c0.1-0.6,0.3-1.2,0.4-1.9l0.8-2.9h1l-1.9,5.8h-1l-0.9-2.8c-0.2-0.6-0.4-1.2-0.5-1.9h0c-0.1,0.7-0.3,1.3-0.5,1.9l-0.9,2.8h-1
		l-1.8-5.8H-868.9z"/>
	<path d="M-859.9,1623.7l0.8,2.9c0.2,0.6,0.3,1.2,0.4,1.8h0c0.1-0.6,0.3-1.2,0.5-1.8l0.9-3h0.9l0.9,2.9c0.2,0.7,0.4,1.3,0.5,1.9h0
		c0.1-0.6,0.3-1.2,0.4-1.9l0.8-2.9h1l-1.9,5.8h-1l-0.9-2.8c-0.2-0.6-0.4-1.2-0.5-1.9h0c-0.1,0.7-0.3,1.3-0.5,1.9l-0.9,2.8h-1
		l-1.8-5.8H-859.9z"/>
	<path d="M-852.2,1628.9c0-0.4,0.3-0.8,0.7-0.8c0.4,0,0.7,0.3,0.7,0.8c0,0.4-0.3,0.8-0.7,0.8
		C-851.9,1629.6-852.2,1629.3-852.2,1628.9z"/>
	<path d="M-846.2,1629.5l-0.1-0.7h0c-0.3,0.5-0.9,0.9-1.8,0.9c-1.2,0-1.8-0.8-1.8-1.7c0-1.4,1.2-2.2,3.5-2.2v-0.1
		c0-0.5-0.1-1.3-1.3-1.3c-0.5,0-1.1,0.2-1.5,0.4l-0.2-0.7c0.5-0.3,1.2-0.5,1.9-0.5c1.8,0,2.2,1.2,2.2,2.4v2.2c0,0.5,0,1,0.1,1.4
		L-846.2,1629.5L-846.2,1629.5z M-846.4,1626.5c-1.2,0-2.5,0.2-2.5,1.3c0,0.7,0.5,1,1,1c0.8,0,1.2-0.5,1.4-1c0-0.1,0.1-0.2,0.1-0.3
		V1626.5z"/>
	<path d="M-843.7,1621h1.1v8.5h-1.1V1621z"/>
	<path d="M-840.8,1621h1.1v8.5h-1.1V1621z"/>
	<path d="M-834.8,1629.5l-0.1-0.7h0c-0.3,0.5-0.9,0.9-1.8,0.9c-1.2,0-1.8-0.8-1.8-1.7c0-1.4,1.2-2.2,3.5-2.2v-0.1
		c0-0.5-0.1-1.3-1.3-1.3c-0.5,0-1.1,0.2-1.5,0.4l-0.2-0.7c0.5-0.3,1.2-0.5,1.9-0.5c1.8,0,2.2,1.2,2.2,2.4v2.2c0,0.5,0,1,0.1,1.4
		L-834.8,1629.5L-834.8,1629.5z M-834.9,1626.5c-1.2,0-2.5,0.2-2.5,1.3c0,0.7,0.5,1,1,1c0.8,0,1.2-0.5,1.4-1c0-0.1,0.1-0.2,0.1-0.3
		V1626.5z"/>
	<path d="M-832.2,1625.3c0-0.6,0-1.1,0-1.6h0.9l0.1,1h0c0.3-0.6,1-1.1,1.9-1.1c0.8,0,2.1,0.5,2.1,2.5v3.5h-1.1v-3.3
		c0-0.9-0.3-1.7-1.3-1.7c-0.7,0-1.2,0.5-1.4,1.1c0,0.1-0.1,0.3-0.1,0.5v3.5h-1.1L-832.2,1625.3L-832.2,1625.3z"/>
	<path d="M-825.6,1625.3c0-0.6,0-1.1,0-1.6h0.9l0,0.9h0c0.3-0.6,0.9-1.1,1.8-1.1c0.8,0,1.4,0.5,1.6,1.2h0c0.2-0.3,0.4-0.6,0.6-0.8
		c0.3-0.3,0.7-0.4,1.3-0.4c0.8,0,1.9,0.5,1.9,2.5v3.4h-1v-3.3c0-1.1-0.4-1.8-1.3-1.8c-0.6,0-1.1,0.4-1.2,1c0,0.1-0.1,0.3-0.1,0.5
		v3.6h-1v-3.5c0-0.9-0.4-1.6-1.2-1.6c-0.7,0-1.1,0.5-1.3,1.1c-0.1,0.2-0.1,0.3-0.1,0.5v3.5h-1L-825.6,1625.3L-825.6,1625.3z"/>
	<path d="M-811.4,1629.3c-0.3,0.1-0.9,0.3-1.7,0.3c-1.8,0-2.9-1.2-2.9-3c0-1.8,1.2-3.1,3.1-3.1c0.6,0,1.2,0.2,1.5,0.3l-0.2,0.8
		c-0.3-0.1-0.6-0.3-1.2-0.3c-1.3,0-2.1,1-2.1,2.2c0,1.3,0.9,2.2,2,2.2c0.6,0,1-0.2,1.3-0.3L-811.4,1629.3z"/>
	<path d="M-807,1629.5l-0.1-0.7h0c-0.3,0.5-0.9,0.9-1.8,0.9c-1.2,0-1.8-0.8-1.8-1.7c0-1.4,1.2-2.2,3.5-2.2v-0.1
		c0-0.5-0.1-1.3-1.3-1.3c-0.5,0-1.1,0.2-1.5,0.4l-0.2-0.7c0.5-0.3,1.2-0.5,1.9-0.5c1.8,0,2.2,1.2,2.2,2.4v2.2c0,0.5,0,1,0.1,1.4
		L-807,1629.5L-807,1629.5z M-807.1,1626.5c-1.2,0-2.5,0.2-2.5,1.3c0,0.7,0.5,1,1,1c0.8,0,1.2-0.5,1.4-1c0-0.1,0.1-0.2,0.1-0.3
		V1626.5z"/>
	<path d="M-804.1,1623.7l1.1,3.3c0.2,0.5,0.3,1,0.5,1.5h0c0.1-0.5,0.3-1,0.5-1.5l1.1-3.3h1.1l-2.3,5.8h-1l-2.2-5.8H-804.1z"/>
	<path d="M-793.6,1626.6c0,2.1-1.5,3.1-2.9,3.1c-1.6,0-2.8-1.2-2.8-3c0-1.9,1.3-3.1,2.9-3.1
		C-794.7,1623.6-793.6,1624.8-793.6,1626.6z M-798.2,1626.6c0,1.3,0.7,2.2,1.8,2.2c1,0,1.8-0.9,1.8-2.3c0-1-0.5-2.2-1.7-2.2
		C-797.6,1624.4-798.2,1625.5-798.2,1626.6z"/>
	<path d="M-791.9,1623.7l1.3,3.4c0.1,0.4,0.3,0.8,0.4,1.2h0c0.1-0.3,0.2-0.8,0.4-1.2l1.2-3.4h1.1l-1.6,4.1c-0.8,2-1.3,3-2,3.6
		c-0.5,0.5-1,0.6-1.3,0.7l-0.3-0.9c0.3-0.1,0.6-0.3,0.9-0.5c0.3-0.2,0.6-0.6,0.9-1.2c0-0.1,0.1-0.2,0.1-0.3c0-0.1,0-0.1-0.1-0.3
		l-2.1-5.3L-791.9,1623.7L-791.9,1623.7z"/>
	<path d="M-787.4,1628.9c0-0.4,0.3-0.8,0.7-0.8c0.4,0,0.7,0.3,0.7,0.8c0,0.4-0.3,0.8-0.7,0.8
		C-787.1,1629.6-787.4,1629.3-787.4,1628.9z"/>
	<path d="M-780.5,1629.3c-0.3,0.1-0.9,0.3-1.7,0.3c-1.8,0-2.9-1.2-2.9-3c0-1.8,1.2-3.1,3.1-3.1c0.6,0,1.2,0.2,1.5,0.3l-0.2,0.8
		c-0.3-0.1-0.6-0.3-1.2-0.3c-1.3,0-2.1,1-2.1,2.2c0,1.3,0.9,2.2,2,2.2c0.6,0,1-0.2,1.3-0.3L-780.5,1629.3z"/>
	<path d="M-774.1,1626.6c0,2.1-1.5,3.1-2.9,3.1c-1.6,0-2.8-1.2-2.8-3c0-1.9,1.3-3.1,2.9-3.1
		C-775.2,1623.6-774.1,1624.8-774.1,1626.6z M-778.7,1626.6c0,1.3,0.7,2.2,1.8,2.2c1,0,1.8-0.9,1.8-2.3c0-1-0.5-2.2-1.7-2.2
		C-778.2,1624.4-778.7,1625.5-778.7,1626.6z"/>
	<path d="M-773.3,1628.9c0-0.4,0.3-0.8,0.7-0.8c0.4,0,0.7,0.3,0.7,0.8c0,0.4-0.3,0.8-0.7,0.8C-773,1629.6-773.3,1629.3-773.3,1628.9
		z"/>
	<path d="M-765.7,1627.9c0,0.6,0,1.1,0,1.6h-0.9l-0.1-0.9h0c-0.3,0.5-0.9,1.1-1.9,1.1c-0.9,0-2-0.5-2-2.5v-3.4h1.1v3.2
		c0,1.1,0.3,1.8,1.3,1.8c0.7,0,1.2-0.5,1.4-1c0.1-0.2,0.1-0.3,0.1-0.5v-3.6h1.1L-765.7,1627.9L-765.7,1627.9z"/>
	<path d="M-762.9,1626.4L-762.9,1626.4c0.2-0.2,0.4-0.5,0.5-0.7l1.7-2h1.3l-2.2,2.4l2.6,3.4h-1.3l-2-2.8l-0.5,0.6v2.2h-1v-8.5h1
		L-762.9,1626.4L-762.9,1626.4z"/>
</g>
<g>
	<polygon class="st16" points="-820,1121.1 -820,1132.3 -866.1,1139.3 	"/>
	<polygon class="st16" points="-817.2,1121.1 -817.2,1132.3 -771.2,1139.3 	"/>
</g>
</svg>
